<svg xmlns="http://www.w3.org/2000/svg" version="1.1" xmlns:xlink="http://www.w3.org/1999/xlink" xmlns:svgjs="http://svgjs.dev/svgjs" width="1000" height="257" viewBox="0 0 1000 257"><g transform="matrix(1,0,0,1,-0.6060606060606233,0.2693053426261258)"><svg viewBox="0 0 396 102" data-background-color="#ffffff" preserveAspectRatio="xMidYMid meet" height="257" width="1000" xmlns="http://www.w3.org/2000/svg" xmlns:xlink="http://www.w3.org/1999/xlink"><defs></defs><g id="tight-bounds" transform="matrix(1,0,0,1,0.2400000000000091,-0.10688383248196942)"><svg viewBox="0 0 395.52 102.21376766496391" height="102.21376766496391" width="395.52"><g><svg viewBox="0 0 552.1706450311785 142.69680932097023" height="102.21376766496391" width="395.52"><g transform="matrix(1,0,0,1,0,19.72148377735551)"><svg viewBox="0 0 395.52 103.25384176625921" height="103.25384176625921" width="395.52"><g><svg viewBox="0 0 395.52 103.25384176625921" height="103.25384176625921" width="395.52"><g><svg viewBox="0 0 395.52 59.10738791833298" height="59.10738791833298" width="395.52"><g transform="matrix(1,0,0,1,0,0)"><svg width="395.52" viewBox="0.25 -34.900001525878906 237.52999877929688 35.5" height="59.10738791833298" data-palette-color="#8789fe"><path d="M10.7 0L0.25-34.3 5.7-34.3 13.75-6.4 13.95-6.4 22.2-34.3 27.1-34.3 16.65 0 10.7 0ZM24.3 0L35.25-34.3 41.5-34.3 52.45 0 47.1 0 44.85-7.35 31.55-7.35 29.3 0 24.3 0ZM32.9-11.9L43.45-11.9 39.15-25.95Q38.75-27.25 38.3-30L38.3-30 38.1-30Q37.65-27.15 37.25-25.95L37.25-25.95 32.9-11.9ZM55.75 0L55.75-34.3 60.75-34.3 60.75-4.65 74.95-4.65 74.95 0 55.75 0ZM91.84 0.6Q85.29 0.6 81.69-3.88 78.09-8.35 78.09-17.15L78.09-17.15Q78.09-25.95 81.69-30.43 85.29-34.9 91.84-34.9L91.84-34.9Q98.39-34.9 101.99-30.43 105.59-25.95 105.59-17.15L105.59-17.15Q105.59-8.35 101.99-3.88 98.39 0.6 91.84 0.6L91.84 0.6ZM91.84-3.9Q95.89-3.9 98.12-6.98 100.34-10.05 100.34-15.9L100.34-15.9 100.34-18.4Q100.34-24.25 98.12-27.33 95.89-30.4 91.84-30.4L91.84-30.4Q87.79-30.4 85.57-27.33 83.34-24.25 83.34-18.4L83.34-18.4 83.34-15.9Q83.34-10.05 85.57-6.98 87.79-3.9 91.84-3.9L91.84-3.9ZM111.14 0L111.14-34.3 125.09-34.3Q130.09-34.3 132.77-31.68 135.44-29.05 135.44-24.7L135.44-24.7Q135.44-21.55 133.84-19.2 132.24-16.85 129.44-15.85L129.44-15.85 136.24 0 130.69 0 124.54-14.9 116.14-14.9 116.14 0 111.14 0ZM116.14-19.4L124.74-19.4Q127.24-19.4 128.67-20.85 130.09-22.3 130.09-24.7L130.09-24.7Q130.09-27.05 128.74-28.4 127.39-29.75 124.79-29.75L124.79-29.75 116.14-29.75 116.14-19.4ZM137.34 0L148.29-34.3 154.54-34.3 165.49 0 160.14 0 157.89-7.35 144.59-7.35 142.34 0 137.34 0ZM145.94-11.9L156.49-11.9 152.19-25.95Q151.79-27.25 151.34-30L151.34-30 151.14-30Q150.69-27.15 150.29-25.95L150.29-25.95 145.94-11.9ZM168.79 0L168.79-34.3 173.79-34.3 173.79-4.65 187.99-4.65 187.99 0 168.79 0ZM188.88 0L199.83-34.3 206.08-34.3 217.03 0 211.68 0 209.43-7.35 196.13-7.35 193.88 0 188.88 0ZM197.48-11.9L208.03-11.9 203.73-25.95Q203.33-27.25 202.88-30L202.88-30 202.68-30Q202.23-27.15 201.83-25.95L201.83-25.95 197.48-11.9ZM218.83 0L218.83-0.8Q218.83-5 221.63-8.95L221.63-8.95Q223.03-10.9 225.88-13.95L225.88-13.95Q228.18-16.5 229.51-18.18 230.83-19.85 231.76-21.88 232.68-23.9 232.68-26.05L232.68-26.05Q232.68-27.95 231.71-29.3 230.73-30.65 228.53-30.65L228.53-30.65Q226.23-30.65 225.18-28.95 224.13-27.25 224.13-24.55L224.13-24.55 224.13-22.5 219.28-22.5Q219.13-23.35 219.13-24.5L219.13-24.5Q219.13-29.7 221.81-32.3 224.48-34.9 228.63-34.9L228.63-34.9Q232.63-34.9 235.13-32.7 237.63-30.5 237.63-26L237.63-26Q237.63-23.2 236.48-20.63 235.33-18.05 233.73-16 232.13-13.95 229.58-11.1L229.58-11.1Q226.88-8.1 225.63-6.35L225.63-6.35Q224.98-5.5 224.68-4.65L224.68-4.65 237.78-4.65 237.78 0 218.83 0Z" opacity="1" transform="matrix(1,0,0,1,0,0)" fill="#8789fe" class="undefined-text-0" data-fill-palette-color="primary" id="text-0"></path></svg></g></svg></g><g transform="matrix(1,0,0,1,163.310208,73.06122362854136)"><svg viewBox="0 0 232.209792 30.192618137717854" height="30.192618137717854" width="232.209792"><g transform="matrix(1,0,0,1,0,0)"><svg width="232.209792" viewBox="3.1500000953674316 -36.25 371.17999267578125 48.26000213623047" height="30.192618137717854" data-palette-color="#8789fe"><path d="M35.06-17.9L35.06-17.9Q35.06-9.4 30.81-4.46 26.56 0.49 19.09 0.49L19.09 0.49Q11.65 0.49 7.4-4.46 3.15-9.4 3.15-17.94L3.15-17.94Q3.15-26.46 7.43-31.36 11.72-36.25 19.14-36.25L19.14-36.25Q26.61-36.25 30.83-31.34 35.06-26.42 35.06-17.9ZM5.86-17.9L5.86-17.9Q5.86-10.23 9.28-6.04 12.7-1.86 19.09-1.86L19.09-1.86Q25.54-1.86 28.94-6.01 32.35-10.16 32.35-17.9L32.35-17.9Q32.35-25.61 28.94-29.72 25.54-33.84 19.14-33.84L19.14-33.84Q12.77-33.84 9.31-29.69 5.86-25.54 5.86-17.9ZM54 0.49L54 0.49Q47.87 0.49 45.07-4.1L45.07-4.1 44.89-4.1 44.97-2.05Q45.07-0.24 45.07 1.9L45.07 1.9 45.07 12.01 42.65 12.01 42.65-26.54 44.7-26.54 45.16-22.75 45.31-22.75Q48.04-27.05 54.05-27.05L54.05-27.05Q59.42-27.05 62.24-23.52 65.06-20 65.06-13.26L65.06-13.26Q65.06-6.71 62.09-3.11 59.13 0.49 54 0.49ZM53.95-1.66L53.95-1.66Q58.03-1.66 60.26-4.69 62.5-7.71 62.5-13.16L62.5-13.16Q62.5-24.85 54.05-24.85L54.05-24.85Q49.41-24.85 47.24-22.3 45.07-19.75 45.07-13.99L45.07-13.99 45.07-13.21Q45.07-6.98 47.15-4.32 49.24-1.66 53.95-1.66ZM83.12 0.49L83.12 0.49Q77.34 0.49 74.1-3.08 70.87-6.64 70.87-13.06L70.87-13.06Q70.87-19.41 73.99-23.23 77.12-27.05 82.42-27.05L82.42-27.05Q87.1-27.05 89.81-23.78 92.52-20.51 92.52-14.89L92.52-14.89 92.52-12.94 73.41-12.94Q73.46-7.47 75.96-4.59 78.46-1.71 83.12-1.71L83.12-1.71Q85.4-1.71 87.12-2.03 88.84-2.34 91.47-3.39L91.47-3.39 91.47-1.2Q89.23-0.22 87.32 0.13 85.42 0.49 83.12 0.49ZM82.42-24.9L82.42-24.9Q78.58-24.9 76.26-22.38 73.95-19.85 73.55-15.09L73.55-15.09 89.96-15.09Q89.96-19.7 87.96-22.3 85.96-24.9 82.42-24.9ZM120.74 0L118.35 0 118.35-17.21Q118.35-21.22 116.67-23.03 114.98-24.85 111.44-24.85L111.44-24.85Q106.68-24.85 104.47-22.45 102.26-20.04 102.26-14.65L102.26-14.65 102.26 0 99.85 0 99.85-26.54 101.9-26.54 102.36-22.9 102.51-22.9Q105.1-27.05 111.71-27.05L111.71-27.05Q120.74-27.05 120.74-17.36L120.74-17.36 120.74 0ZM162.63-9.2L162.63-9.2Q162.63-4.74 159.35-2.12 156.07 0.49 150.62 0.49L150.62 0.49Q144.08 0.49 140.59-0.95L140.59-0.95 140.59-3.44Q144.45-1.81 150.43-1.81L150.43-1.81Q154.82-1.81 157.4-3.82 159.97-5.83 159.97-9.11L159.97-9.11Q159.97-11.13 159.12-12.46 158.26-13.79 156.34-14.89 154.41-15.99 150.67-17.26L150.67-17.26Q145.2-19.14 143.11-21.33 141.03-23.51 141.03-27.15L141.03-27.15Q141.03-31.15 144.16-33.68 147.3-36.21 152.23-36.21L152.23-36.21Q157.26-36.21 161.68-34.3L161.68-34.3 160.78-32.15Q156.34-34.01 152.28-34.01L152.28-34.01Q148.33-34.01 145.98-32.18 143.64-30.35 143.64-27.2L143.64-27.2Q143.64-25.22 144.36-23.95 145.08-22.68 146.72-21.67 148.35-20.65 152.33-19.24L152.33-19.24Q156.51-17.8 158.61-16.44 160.71-15.09 161.67-13.37 162.63-11.65 162.63-9.2ZM191.51-13.31L191.51-13.31Q191.51-6.81 188.36-3.16 185.21 0.49 179.67 0.49L179.67 0.49Q176.18 0.49 173.52-1.2 170.86-2.88 169.44-6.03 168.03-9.18 168.03-13.31L168.03-13.31Q168.03-19.8 171.18-23.43 174.33-27.05 179.82-27.05L179.82-27.05Q185.29-27.05 188.4-23.38 191.51-19.7 191.51-13.31ZM170.57-13.31L170.57-13.31Q170.57-7.84 172.97-4.77 175.38-1.71 179.77-1.71L179.77-1.71Q184.16-1.71 186.57-4.77 188.97-7.84 188.97-13.31L188.97-13.31Q188.97-18.8 186.55-21.83 184.12-24.85 179.72-24.85L179.72-24.85Q175.33-24.85 172.95-21.84 170.57-18.82 170.57-13.31ZM198.57-26.54L200.96-26.54 200.96-9.35Q200.96-5.35 202.64-3.53 204.33-1.71 207.87-1.71L207.87-1.71Q212.6-1.71 214.84-4.1 217.07-6.49 217.07-11.89L217.07-11.89 217.07-26.54 219.46-26.54 219.46 0 217.41 0 216.97-3.66 216.83-3.66Q214.24 0.49 207.62 0.49L207.62 0.49Q198.57 0.49 198.57-9.2L198.57-9.2 198.57-26.54ZM238.8-27.05L238.8-27.05Q240.48-27.05 242.41-26.71L242.41-26.71 241.95-24.39Q240.29-24.8 238.51-24.8L238.51-24.8Q235.11-24.8 232.94-21.92 230.77-19.04 230.77-14.65L230.77-14.65 230.77 0 228.35 0 228.35-26.54 230.4-26.54 230.64-21.75 230.81-21.75Q232.45-24.68 234.31-25.87 236.16-27.05 238.8-27.05ZM258.4 0.49L258.4 0.49Q252.71 0.49 249.49-3.1 246.27-6.69 246.27-13.11L246.27-13.11Q246.27-19.7 249.61-23.38 252.96-27.05 258.77-27.05L258.77-27.05Q262.21-27.05 265.36-25.85L265.36-25.85 264.7-23.71Q261.26-24.85 258.72-24.85L258.72-24.85Q253.83-24.85 251.32-21.84 248.81-18.82 248.81-13.16L248.81-13.16Q248.81-7.79 251.32-4.75 253.83-1.71 258.35-1.71L258.35-1.71Q261.96-1.71 265.07-3L265.07-3 265.07-0.76Q262.53 0.49 258.4 0.49ZM282.27 0.49L282.27 0.49Q276.49 0.49 273.25-3.08 270.02-6.64 270.02-13.06L270.02-13.06Q270.02-19.41 273.14-23.23 276.27-27.05 281.57-27.05L281.57-27.05Q286.25-27.05 288.96-23.78 291.67-20.51 291.67-14.89L291.67-14.89 291.67-12.94 272.56-12.94Q272.61-7.47 275.11-4.59 277.61-1.71 282.27-1.71L282.27-1.71Q284.55-1.71 286.27-2.03 287.99-2.34 290.62-3.39L290.62-3.39 290.62-1.2Q288.38-0.22 286.47 0.13 284.57 0.49 282.27 0.49ZM281.57-24.9L281.57-24.9Q277.73-24.9 275.41-22.38 273.1-19.85 272.7-15.09L272.7-15.09 289.11-15.09Q289.11-19.7 287.11-22.3 285.11-24.9 281.57-24.9ZM334.74 0L329.78-12.6 315.28-12.6 310.3 0 307.54 0 321.89-35.84 323.48-35.84 337.54 0 334.74 0ZM321.19-27.66L316.18-14.84 328.95-14.84 324.09-27.71Q323.48-29.22 322.63-31.91L322.63-31.91Q321.97-29.57 321.19-27.66L321.19-27.66ZM364.08-25.44L364.08-25.44Q364.08-20.26 360.56-17.5 357.05-14.75 350.6-14.75L350.6-14.75 345.08-14.75 345.08 0 342.59 0 342.59-35.69 351.33-35.69Q364.08-35.69 364.08-25.44ZM345.08-33.45L345.08-16.89 349.99-16.89Q356.02-16.89 358.71-18.88 361.39-20.87 361.39-25.34L361.39-25.34Q361.39-29.47 358.85-31.46 356.32-33.45 350.99-33.45L350.99-33.45 345.08-33.45ZM374.33 0L371.84 0 371.84-35.69 374.33-35.69 374.33 0Z" opacity="1" transform="matrix(1,0,0,1,0,0)" fill="#8789fe" class="undefined-text-1" data-fill-palette-color="secondary" id="text-1"></path></svg></g></svg></g></svg></g></svg></g><g transform="matrix(1,0,0,1,409.47383571020833,0)"><svg viewBox="0 0 142.69680932097023 142.69680932097023" height="142.69680932097023" width="142.69680932097023"><g data-palette-color="#8789fe"><rect width="39.003794547731864" height="142.69680932097023" fill="#8789fe" stroke="transparent" data-fill-palette-color="accent" x="0" fill-opacity="1"></rect><rect width="39.003794547731864" height="142.69680932097023" fill="#8789fe" stroke="transparent" data-fill-palette-color="accent" x="47.56560310699008" fill-opacity="0.75"></rect><rect width="39.003794547731864" height="142.69680932097023" fill="#8789fe" stroke="transparent" data-fill-palette-color="accent" x="95.13120621398016" fill-opacity="0.5"></rect></g></svg></g></svg></g></svg><rect width="395.52" height="102.21376766496391" fill="none" stroke="none" visibility="hidden"></rect></g></svg></g></svg>